# Blender 4.2.1 LTS
# www.blender.org
mtllib gcmask-edited.mtl
o obj_0
v -12.402000 9.041358 0.999999
v -12.611000 8.905357 0.999999
v -12.139000 9.128358 0.999999
v -11.847000 9.158358 0.999999
v 9.873000 8.794357 0.999999
v 9.604000 8.941358 0.999999
v 10.068000 8.631357 0.999999
v 20.000000 -48.500000 1.000004
v -12.745000 8.734358 0.999999
v -12.791000 8.545358 0.999999
v 12.791000 -8.498334 1.000001
v 12.791000 5.048357 1.000000
v 12.767000 5.263358 1.000000
v 12.698000 5.509357 1.000000
v -12.139000 -9.081334 1.000001
v -11.847000 -9.111334 1.000001
v 12.308000 6.187357 1.000000
v 8.642000 9.158358 0.999999
v 12.791000 5.048357 -0.000000
v 20.000000 48.500000 0.999996
v 12.457000 5.995358 1.000000
v -12.402000 -8.994334 1.000001
v 12.592000 5.761358 1.000000
v -12.611000 -8.858334 1.000001
v -12.791000 -8.498334 1.000001
v 12.791000 -8.498334 0.000001
v -20.000000 -48.500000 1.000004
v -20.000000 48.500000 0.999996
v -12.611000 8.905357 -0.000001
v -12.402000 9.041358 -0.000001
v 12.139000 -9.081334 0.000001
v 11.847000 -9.111334 0.000001
v -12.745000 -8.687334 1.000001
v -11.847000 9.158358 -0.000001
v -12.139000 9.128358 -0.000001
v -12.791000 8.545358 -0.000001
v -12.745000 8.734358 -0.000001
v -11.847000 -9.111334 0.000001
v 8.957000 9.132358 0.999999
v 8.642000 9.158358 -0.000001
v -12.139000 -9.081334 0.000001
v 20.000000 -48.500000 0.000004
v -12.402000 -8.994334 0.000001
v 20.000000 48.500000 -0.000004
v 9.289000 9.057358 0.999999
v -12.611000 -8.858334 0.000001
v -12.791000 -8.498334 0.000001
v -12.745000 -8.687334 0.000001
v 12.767000 5.263358 -0.000000
v 12.698000 5.509357 -0.000000
v -20.000000 48.500000 -0.000004
v -20.000000 -48.500000 0.000004
v 8.957000 9.132358 -0.000001
v 12.744000 -8.687334 1.000001
v 9.289000 9.057358 -0.000001
v 12.610000 -8.858334 1.000001
v 12.402000 -8.994334 1.000001
v 9.604000 8.941358 -0.000001
v 12.139000 -9.081334 1.000001
v 9.873000 8.794357 -0.000001
v 11.847000 -9.111334 1.000001
v 10.068000 8.631357 -0.000001
v 12.308000 6.187357 -0.000000
v 12.457000 5.995358 -0.000000
v 12.592000 5.761358 -0.000000
v 12.744000 -8.687334 0.000001
v 12.610000 -8.858334 0.000001
v 12.402000 -8.994334 0.000001
vn -0.0000 -0.0000 1.0000
vn -1.0000 -0.0000 -0.0000
vn -0.0000 -0.0000 -1.0000
vn -0.0000 -1.0000 -0.0000
vn 0.1022 -0.9948 -0.0000
vn 1.0000 -0.0000 -0.0000
vn -0.9628 -0.2701 -0.0000
vn 0.9716 -0.2365 -0.0000
vn 0.7871 -0.6168 -0.0000
vn 0.1022 0.9948 -0.0000
vn -0.0000 1.0000 -0.0000
vn 0.3141 0.9494 -0.0000
vn 0.5454 -0.8382 -0.0000
vn 0.5454 0.8382 -0.0000
vn 0.3141 -0.9494 -0.0000
vn 0.7871 0.6168 -0.0000
vn 0.9716 0.2365 -0.0000
vn -0.9938 -0.1109 -0.0000
vn -0.0823 -0.9966 -0.0000
vn -0.7372 -0.6757 -0.0000
vn -0.2204 -0.9754 -0.0000
vn -0.7900 -0.6131 -0.0000
vn -0.8662 -0.4997 -0.0000
vn -0.9218 -0.3877 -0.0000
vn -0.9704 0.2413 -0.0000
vn -0.3456 -0.9384 -0.0000
vn -0.7871 0.6168 -0.0000
vn -0.4795 -0.8775 -0.0000
vn -0.5473 0.8370 -0.0000
vn -0.3141 0.9494 -0.0000
vn -0.1022 0.9948 -0.0000
vn -0.6413 -0.7673 -0.0000
s 0
usemtl color_15277357
f 28//1 1//1 3//1
f 6//1 5//1 20//1
f 28//1 10//1 9//1
f 7//1 20//1 5//1
f 8//1 20//1 12//1
f 20//1 13//1 12//1
f 14//1 13//1 20//1
f 12//1 11//1 8//1
f 28//1 2//1 1//1
f 28//1 9//1 2//1
f 28//1 4//1 18//1
f 28//1 3//1 4//1
f 20//1 7//1 17//1
f 28//1 27//1 10//1
f 27//1 25//1 10//1
f 18//1 20//1 28//1
f 12//2 19//2 26//2
f 26//2 11//2 12//2
f 27//1 15//1 22//1
f 42//3 52//3 32//3
f 51//3 44//3 40//3
f 34//4 40//4 4//4
f 27//1 24//1 33//1
f 33//1 25//1 27//1
f 32//3 52//3 38//3
f 52//3 41//3 38//3
f 52//3 43//3 41//3
f 39//1 20//1 18//1
f 40//4 18//4 4//4
f 51//3 29//3 37//3
f 51//3 30//3 29//3
f 39//1 45//1 20//1
f 65//3 64//3 44//3
f 42//3 26//3 19//3
f 67//3 66//3 42//3
f 66//3 26//3 42//3
f 19//3 44//3 42//3
f 3//5 35//5 4//5
f 4//5 35//5 34//5
f 10//6 25//6 36//6
f 52//3 46//3 43//3
f 35//3 30//3 51//3
f 34//3 35//3 51//3
f 40//3 34//3 51//3
f 40//3 44//3 53//3
f 44//3 58//3 55//3
f 55//3 53//3 44//3
f 60//3 58//3 44//3
f 25//6 47//6 36//6
f 20//1 45//1 6//1
f 52//3 48//3 46//3
f 49//7 13//7 50//7
f 50//7 13//7 14//7
f 52//3 47//3 48//3
f 51//3 36//3 47//3
f 51//3 37//3 36//3
f 52//3 51//3 47//3
f 17//1 21//1 20//1
f 52//2 27//2 51//2
f 51//2 27//2 28//2
f 44//6 20//6 42//6
f 42//6 20//6 8//6
f 21//1 23//1 20//1
f 23//1 14//1 20//1
f 11//1 54//1 8//1
f 37//8 9//8 36//8
f 36//8 9//8 10//8
f 52//4 8//4 27//4
f 54//1 56//1 8//1
f 52//4 42//4 8//4
f 29//9 2//9 37//9
f 37//9 2//9 9//9
f 41//10 15//10 38//10
f 38//10 15//10 16//10
f 56//1 57//1 8//1
f 51//11 28//11 20//11
f 20//11 44//11 51//11
f 57//1 59//1 8//1
f 43//12 22//12 41//12
f 41//12 22//12 15//12
f 30//13 1//13 29//13
f 29//13 1//13 2//13
f 46//14 24//14 43//14
f 43//14 24//14 22//14
f 35//15 3//15 30//15
f 30//15 3//15 1//15
f 62//3 60//3 44//3
f 48//16 33//16 46//16
f 46//16 33//16 24//16
f 22//1 24//1 27//1
f 27//1 8//1 16//1
f 8//1 61//1 16//1
f 59//1 61//1 8//1
f 16//1 15//1 27//1
f 33//17 48//17 25//17
f 25//17 48//17 47//17
f 13//18 49//18 12//18
f 12//18 49//18 19//18
f 49//3 44//3 19//3
f 53//19 39//19 40//19
f 40//19 39//19 18//19
f 44//3 63//3 62//3
f 63//20 17//20 62//20
f 62//20 17//20 7//20
f 53//21 45//21 39//21
f 64//22 21//22 63//22
f 63//22 21//22 17//22
f 65//23 23//23 64//23
f 64//23 23//23 21//23
f 55//21 45//21 53//21
f 44//3 64//3 63//3
f 50//24 14//24 65//24
f 65//24 14//24 23//24
f 66//25 54//25 26//25
f 26//25 54//25 11//25
f 58//26 6//26 55//26
f 55//26 6//26 45//26
f 67//27 56//27 66//27
f 66//27 56//27 54//27
f 44//3 50//3 65//3
f 44//3 49//3 50//3
f 60//28 5//28 58//28
f 58//28 5//28 6//28
f 68//29 57//29 67//29
f 67//29 57//29 56//29
f 31//30 59//30 68//30
f 68//30 59//30 57//30
f 32//31 61//31 31//31
f 31//31 61//31 59//31
f 62//32 7//32 60//32
f 60//32 7//32 5//32
f 16//11 32//11 38//11
f 31//3 68//3 42//3
f 32//3 31//3 42//3
f 68//3 67//3 42//3
f 61//11 32//11 16//11
