# Blender 4.2.1 LTS
# www.blender.org
mtllib gcmask-edited-4.mtl
o obj_0
v -12.402000 9.041358 0.999999
v -12.611000 8.905357 0.999999
v -12.139000 9.128358 0.999999
v -11.847000 9.158358 0.999999
v 9.531112 8.713503 0.999999
v 9.269812 8.987560 0.999999
v 9.803116 8.404194 0.999999
v 20.000000 -48.500000 1.000004
v -12.745000 8.734358 0.999999
v -12.791000 8.545358 0.999999
v 12.791000 -8.498334 1.000001
v 12.757734 4.965581 1.000000
v 12.767000 5.180581 1.000000
v 12.704653 5.426581 1.000000
v -12.139000 -9.081334 1.000001
v -11.847000 -9.111334 1.000001
v 12.308000 5.904985 1.000000
v 8.377116 9.158358 0.999999
v 12.757734 4.965581 -0.000000
v 20.000000 48.500000 0.999996
v 12.457000 5.726292 1.000000
v -12.402000 -8.994334 1.000001
v 12.592000 5.592090 1.000000
v -12.611000 -8.858334 1.000001
v -12.791000 -8.498334 1.000001
v 12.791000 -8.498334 0.000001
v -20.000000 -48.500000 1.000004
v -20.000000 48.500000 0.999996
v -12.611000 8.905357 -0.000001
v -12.402000 9.041358 -0.000001
v 12.139000 -9.081334 0.000001
v 11.847000 -9.111334 0.000001
v -12.745000 -8.687334 1.000001
v -11.847000 9.158358 -0.000001
v -12.139000 9.128358 -0.000001
v -12.791000 8.545358 -0.000001
v -12.745000 8.734358 -0.000001
v -11.847000 -9.111334 0.000001
v 8.692116 9.143909 0.999999
v 8.377116 9.158358 -0.000001
v -12.139000 -9.081334 0.000001
v 20.000000 -48.500000 0.000004
v -12.402000 -8.994334 0.000001
v 20.000000 48.500000 -0.000004
v 9.024116 9.130512 0.999999
v -12.611000 -8.858334 0.000001
v -12.791000 -8.498334 0.000001
v -12.745000 -8.687334 0.000001
v 12.767000 5.180581 -0.000000
v 12.704653 5.426581 -0.000000
v -20.000000 48.500000 -0.000004
v -20.000000 -48.500000 0.000004
v 8.692116 9.143909 -0.000001
v 12.744000 -8.687334 1.000001
v 9.024116 9.130512 -0.000001
v 12.610000 -8.858334 1.000001
v 12.402000 -8.994334 1.000001
v 9.269812 8.987560 -0.000001
v 12.139000 -9.081334 1.000001
v 9.531112 8.713503 -0.000001
v 11.847000 -9.111334 1.000001
v 9.803116 8.404194 -0.000001
v 12.308000 5.904985 -0.000000
v 12.457000 5.726292 -0.000000
v 12.592000 5.592090 -0.000000
v 12.744000 -8.687334 0.000001
v 12.610000 -8.858334 0.000001
v 12.402000 -8.994334 0.000001
vn -0.0000 -0.0000 1.0000
vn -1.0000 -0.0025 -0.0000
vn -0.0000 -0.0000 -1.0000
vn -0.0000 -1.0000 -0.0000
vn 0.1022 -0.9948 -0.0000
vn 1.0000 -0.0000 -0.0000
vn -0.9694 -0.2457 -0.0000
vn -1.0000 -0.0000 -0.0000
vn 0.9716 -0.2365 -0.0000
vn 0.7871 -0.6168 -0.0000
vn 0.1022 0.9948 -0.0000
vn -0.0000 1.0000 -0.0000
vn 0.3141 0.9494 -0.0000
vn 0.5454 -0.8382 -0.0000
vn 0.5454 0.8382 -0.0000
vn 0.3141 -0.9494 -0.0000
vn 0.7871 0.6168 -0.0000
vn 0.9716 0.2365 -0.0000
vn -0.9991 0.0431 -0.0000
vn -0.0458 -0.9989 -0.0000
vn -0.7063 -0.7079 -0.0000
vn -0.0403 -0.9992 -0.0000
vn -0.7680 -0.6404 -0.0000
vn -0.7050 -0.7092 -0.0000
vn -0.8267 -0.5627 -0.0000
vn -0.9704 0.2413 -0.0000
vn -0.5029 -0.8643 -0.0000
vn -0.7871 0.6168 -0.0000
vn -0.7238 -0.6901 -0.0000
vn -0.5473 0.8370 -0.0000
vn -0.3141 0.9494 -0.0000
vn -0.1022 0.9948 -0.0000
vn -0.7509 -0.6604 -0.0000
s 0
usemtl color_15277357
f 28//1 1//1 3//1
f 6//1 5//1 20//1
f 28//1 10//1 9//1
f 7//1 20//1 5//1
f 8//1 20//1 12//1
f 20//1 13//1 12//1
f 14//1 13//1 20//1
f 12//1 11//1 8//1
f 28//1 2//1 1//1
f 28//1 9//1 2//1
f 28//1 4//1 18//1
f 28//1 3//1 4//1
f 20//1 7//1 17//1
f 28//1 27//1 10//1
f 27//1 25//1 10//1
f 18//1 20//1 28//1
f 12//2 19//2 26//2
f 26//2 11//2 12//2
f 27//1 15//1 22//1
f 42//3 52//3 32//3
f 51//3 44//3 40//3
f 34//4 40//4 4//4
f 27//1 24//1 33//1
f 33//1 25//1 27//1
f 32//3 52//3 38//3
f 52//3 41//3 38//3
f 52//3 43//3 41//3
f 39//1 20//1 18//1
f 40//4 18//4 4//4
f 51//3 29//3 37//3
f 51//3 30//3 29//3
f 39//1 45//1 20//1
f 65//3 64//3 44//3
f 42//3 26//3 19//3
f 67//3 66//3 42//3
f 66//3 26//3 42//3
f 19//3 44//3 42//3
f 3//5 35//5 4//5
f 4//5 35//5 34//5
f 10//6 25//6 36//6
f 52//3 46//3 43//3
f 35//3 30//3 51//3
f 34//3 35//3 51//3
f 40//3 34//3 51//3
f 40//3 44//3 53//3
f 44//3 58//3 55//3
f 55//3 53//3 44//3
f 60//3 58//3 44//3
f 25//6 47//6 36//6
f 20//1 45//1 6//1
f 52//3 48//3 46//3
f 49//7 13//7 50//7
f 50//7 13//7 14//7
f 52//3 47//3 48//3
f 51//3 36//3 47//3
f 51//3 37//3 36//3
f 52//3 51//3 47//3
f 17//1 21//1 20//1
f 52//8 27//8 51//8
f 51//8 27//8 28//8
f 44//6 20//6 42//6
f 42//6 20//6 8//6
f 21//1 23//1 20//1
f 23//1 14//1 20//1
f 11//1 54//1 8//1
f 37//9 9//9 36//9
f 36//9 9//9 10//9
f 52//4 8//4 27//4
f 54//1 56//1 8//1
f 52//4 42//4 8//4
f 29//10 2//10 37//10
f 37//10 2//10 9//10
f 41//11 15//11 38//11
f 38//11 15//11 16//11
f 56//1 57//1 8//1
f 51//12 28//12 20//12
f 20//12 44//12 51//12
f 57//1 59//1 8//1
f 43//13 22//13 41//13
f 41//13 22//13 15//13
f 30//14 1//14 29//14
f 29//14 1//14 2//14
f 46//15 24//15 43//15
f 43//15 24//15 22//15
f 35//16 3//16 30//16
f 30//16 3//16 1//16
f 62//3 60//3 44//3
f 48//17 33//17 46//17
f 46//17 33//17 24//17
f 22//1 24//1 27//1
f 27//1 8//1 16//1
f 8//1 61//1 16//1
f 59//1 61//1 8//1
f 16//1 15//1 27//1
f 33//18 48//18 25//18
f 25//18 48//18 47//18
f 13//19 49//19 12//19
f 12//19 49//19 19//19
f 49//3 44//3 19//3
f 53//20 39//20 40//20
f 40//20 39//20 18//20
f 44//3 63//3 62//3
f 63//21 17//21 62//21
f 62//21 17//21 7//21
f 53//22 45//22 39//22
f 64//23 21//23 63//23
f 63//23 21//23 17//23
f 65//24 23//24 64//24
f 64//24 23//24 21//24
f 55//22 45//22 53//22
f 44//3 64//3 63//3
f 50//25 14//25 65//25
f 65//25 14//25 23//25
f 66//26 54//26 26//26
f 26//26 54//26 11//26
f 58//27 6//27 55//27
f 55//27 6//27 45//27
f 67//28 56//28 66//28
f 66//28 56//28 54//28
f 44//3 50//3 65//3
f 44//3 49//3 50//3
f 60//29 5//29 58//29
f 58//29 5//29 6//29
f 68//30 57//30 67//30
f 67//30 57//30 56//30
f 31//31 59//31 68//31
f 68//31 59//31 57//31
f 32//32 61//32 31//32
f 31//32 61//32 59//32
f 62//33 7//33 60//33
f 60//33 7//33 5//33
f 16//12 32//12 38//12
f 31//3 68//3 42//3
f 32//3 31//3 42//3
f 68//3 67//3 42//3
f 61//12 32//12 16//12
