# Blender 4.2.1 LTS
# www.blender.org
mtllib gcmask-rev-edited.mtl
o obj_0
v 8.957000 -9.085334 1.000001
v 8.642000 -9.111334 1.000001
v 9.289000 -9.010334 1.000001
v 12.402000 8.994334 0.999999
v 9.604000 -8.894334 1.000001
v 12.610000 8.858334 0.999999
v 12.139000 9.081334 0.999999
v 12.308000 -6.140334 0.000000
v 12.457000 -5.948334 0.000000
v 11.847000 9.111334 0.999999
v 12.592000 -5.714334 0.000000
v 12.698000 -5.462334 0.000000
v 20.000000 48.500000 0.999996
v -12.139000 9.081334 0.999999
v -12.139000 9.081334 -0.000001
v -11.847000 9.111334 -0.000001
v -11.847000 9.111334 0.999999
v 12.791000 8.498334 -0.000001
v 12.744000 8.687334 -0.000001
v -12.402000 8.994334 0.999999
v -12.402000 8.994334 -0.000001
v 12.610000 8.858334 -0.000001
v 12.139000 9.081334 -0.000001
v 12.402000 8.994334 -0.000001
v -12.611000 8.858334 0.999999
v -12.611000 8.858334 -0.000001
v 11.847000 9.111334 -0.000001
v 12.791000 -5.001334 0.000000
v 12.791000 -5.001334 1.000000
v 12.791000 8.498334 0.999999
v -11.847000 -9.111334 0.000001
v -11.847000 -9.111334 1.000001
v 20.000000 48.500000 -0.000004
v 8.642000 -9.111334 0.000001
v 20.000000 -48.500000 0.000004
v -12.402000 -8.994334 1.000001
v -12.611000 -8.858334 1.000001
v -12.139000 -9.081334 1.000001
v -12.791000 -8.498334 1.000001
v 20.000000 -48.500000 1.000004
v -12.791000 -8.498334 0.000001
v -12.745000 -8.687334 1.000001
v -12.791000 8.498334 -0.000001
v -12.791000 8.498334 0.999999
v -12.745000 8.687334 0.999999
v 9.873000 -8.747334 1.000001
v 10.068000 -8.584333 1.000001
v 8.957000 -9.085334 0.000001
v 9.289000 -9.010334 0.000001
v 9.604000 -8.894334 0.000001
v 12.767000 -5.216334 1.000000
v 12.698000 -5.462334 1.000000
v 9.873000 -8.747334 0.000001
v 12.308000 -6.140334 1.000000
v 10.068000 -8.584333 0.000001
v 12.457000 -5.948334 1.000000
v 12.592000 -5.714334 1.000000
v -20.000000 -48.500000 0.000004
v -20.000000 48.500000 -0.000004
v -20.000000 48.500000 0.999996
v 12.767000 -5.216334 0.000000
v -20.000000 -48.500000 1.000004
v 12.744000 8.687334 0.999999
v -12.402000 -8.994334 0.000001
v -12.611000 -8.858334 0.000001
v -12.139000 -9.081334 0.000001
v -12.745000 -8.687334 0.000001
v -12.745000 8.687334 -0.000001
vn -0.0000 -0.0000 1.0000
vn -0.0000 -0.0000 -1.0000
vn 0.1022 -0.9948 -0.0000
vn 0.3141 -0.9494 -0.0000
vn -0.3141 -0.9494 -0.0000
vn 0.5454 -0.8382 -0.0000
vn -0.1022 -0.9948 -0.0000
vn -0.0000 -1.0000 -0.0000
vn -1.0000 -0.0000 -0.0000
vn -0.0000 1.0000 -0.0000
vn 1.0000 -0.0000 -0.0000
vn 0.5454 0.8382 -0.0000
vn -0.0823 0.9966 -0.0000
vn 0.3141 0.9494 -0.0000
vn -0.2204 0.9754 -0.0000
vn 0.1022 0.9948 -0.0000
vn -0.3456 0.9384 -0.0000
vn 0.9716 0.2365 -0.0000
vn -0.4795 0.8775 -0.0000
vn 0.7871 0.6168 -0.0000
vn 0.7871 -0.6168 -0.0000
vn 0.9716 -0.2365 -0.0000
vn -0.6413 0.7673 -0.0000
vn -0.7372 0.6757 -0.0000
vn -0.9628 0.2701 -0.0000
vn -0.9938 0.1109 -0.0000
vn -0.7900 0.6131 -0.0000
vn -0.8662 0.4997 -0.0000
vn -0.9218 0.3877 -0.0000
vn -0.9704 -0.2413 -0.0000
vn -0.7871 -0.6168 -0.0000
vn -0.5473 -0.8370 -0.0000
s 0
usemtl color_15277357
f 4//1 6//1 13//1
f 9//2 35//2 8//2
f 11//2 35//2 9//2
f 7//1 13//1 10//1
f 12//2 35//2 11//2
f 14//3 15//3 16//3
f 14//3 16//3 17//3
f 20//4 21//4 15//4
f 20//4 15//4 14//4
f 7//5 23//5 24//5
f 7//5 24//5 4//5
f 25//6 26//6 21//6
f 25//6 21//6 20//6
f 10//7 27//7 23//7
f 10//7 23//7 7//7
f 24//2 33//2 22//2
f 23//2 33//2 24//2
f 27//2 33//2 23//2
f 16//8 10//8 17//8
f 16//2 33//2 27//2
f 18//9 28//9 29//9
f 16//8 27//8 10//8
f 30//9 18//9 29//9
f 18//2 33//2 28//2
f 19//2 33//2 18//2
f 19//2 22//2 33//2
f 35//2 28//2 33//2
f 32//10 2//10 31//10
f 34//10 31//10 2//10
f 35//2 58//2 34//2
f 34//2 48//2 35//2
f 40//11 35//11 33//11
f 40//11 33//11 13//11
f 36//1 62//1 38//1
f 39//11 41//11 44//11
f 43//11 44//11 41//11
f 58//8 35//8 40//8
f 37//1 62//1 36//1
f 39//1 62//1 42//1
f 37//1 42//1 62//1
f 7//1 4//1 13//1
f 40//1 13//1 29//1
f 29//1 51//1 40//1
f 3//1 1//1 40//1
f 40//1 5//1 3//1
f 2//1 40//1 1//1
f 5//1 40//1 46//1
f 49//2 35//2 48//2
f 33//2 16//2 59//2
f 15//2 59//2 16//2
f 47//1 46//1 40//1
f 50//2 35//2 49//2
f 35//2 50//2 53//2
f 53//2 55//2 35//2
f 52//1 57//1 40//1
f 51//1 52//1 40//1
f 54//1 47//1 40//1
f 58//2 31//2 34//2
f 8//2 35//2 55//2
f 58//2 59//2 43//2
f 41//2 58//2 43//2
f 60//9 59//9 58//9
f 60//9 58//9 62//9
f 12//2 61//2 35//2
f 54//1 40//1 56//1
f 57//1 56//1 40//1
f 13//10 33//10 60//10
f 35//2 61//2 28//2
f 30//1 29//1 13//1
f 60//10 33//10 59//10
f 58//8 40//8 62//8
f 63//1 30//1 13//1
f 6//1 63//1 13//1
f 36//12 64//12 65//12
f 36//12 65//12 37//12
f 1//13 48//13 34//13
f 1//13 34//13 2//13
f 14//1 17//1 60//1
f 38//14 66//14 64//14
f 38//14 64//14 36//14
f 3//15 49//15 48//15
f 3//15 48//15 1//15
f 66//16 38//16 32//16
f 66//16 32//16 31//16
f 5//17 50//17 49//17
f 5//17 49//17 3//17
f 25//1 20//1 60//1
f 45//1 25//1 60//1
f 42//18 67//18 41//18
f 42//18 41//18 39//18
f 5//19 53//19 50//19
f 37//20 65//20 67//20
f 37//20 67//20 42//20
f 20//1 14//1 60//1
f 13//1 60//1 17//1
f 13//1 17//1 10//1
f 46//19 53//19 5//19
f 26//21 25//21 68//21
f 45//21 68//21 25//21
f 32//1 38//1 62//1
f 40//1 2//1 62//1
f 32//1 62//1 2//1
f 43//22 68//22 45//22
f 43//22 45//22 44//22
f 47//23 55//23 53//23
f 47//23 53//23 46//23
f 60//1 62//1 39//1
f 44//1 60//1 39//1
f 45//1 60//1 44//1
f 54//24 8//24 55//24
f 54//24 55//24 47//24
f 51//25 61//25 12//25
f 51//25 12//25 52//25
f 28//26 61//26 51//26
f 28//26 51//26 29//26
f 31//2 58//2 66//2
f 64//2 66//2 58//2
f 41//2 67//2 58//2
f 56//27 9//27 8//27
f 56//27 8//27 54//27
f 57//28 11//28 9//28
f 57//28 9//28 56//28
f 65//2 58//2 67//2
f 64//2 58//2 65//2
f 52//29 12//29 11//29
f 52//29 11//29 57//29
f 26//2 68//2 59//2
f 63//30 19//30 18//30
f 63//30 18//30 30//30
f 6//31 22//31 19//31
f 6//31 19//31 63//31
f 59//2 68//2 43//2
f 4//32 24//32 22//32
f 4//32 22//32 6//32
f 21//2 59//2 15//2
f 26//2 59//2 21//2
