# Blender 4.2.1 LTS
# www.blender.org
mtllib ofamask-lg.mtl
o obj_0
v -12.368734 9.021399 0.999999
v -12.611000 8.832172 0.999999
v -12.085774 9.128358 0.999999
v -11.747202 9.137941 0.999999
v 9.531112 8.713503 0.999999
v 9.269812 8.973449 0.999999
v 9.803116 8.404194 0.999999
v 49.931740 -48.500000 1.000004
v -12.745000 8.514803 0.999999
v -12.791000 8.086287 0.999999
v 12.791000 -8.192583 1.000001
v 12.757734 4.759787 1.000000
v 12.767000 5.104144 1.000000
v 12.704653 5.403062 1.000000
v -12.056224 -9.081334 1.000001
v -11.653855 -9.111334 1.000001
v 12.308000 5.904985 1.000000
v 8.271279 9.146108 0.999999
v 12.757734 4.759787 -0.000000
v 49.931740 48.500000 0.999996
v 12.457000 5.726292 1.000000
v -12.374409 -8.994334 1.000001
v 12.592000 5.574450 1.000000
v -12.611000 -8.816945 1.000001
v -12.791000 -8.153433 1.000001
v 12.791000 -8.192583 0.000001
v -50.239254 -48.500000 1.000004
v -50.239254 48.500000 0.999996
v -12.611000 8.832172 -0.000001
v -12.368734 9.021399 -0.000001
v 12.097841 -9.081334 0.000001
v 11.747044 -9.111334 0.000001
v -12.745000 -8.507985 1.000001
v -11.747202 9.137941 -0.000001
v -12.085774 9.128358 -0.000001
v -12.791000 8.086287 -0.000001
v -12.745000 8.514803 -0.000001
v -11.653855 -9.111334 0.000001
v 8.621558 9.143909 0.999999
v 8.271279 9.146108 -0.000001
v -12.056224 -9.081334 0.000001
v 49.931740 -48.500000 0.000004
v -12.374409 -8.994334 0.000001
v 49.931740 48.500000 -0.000004
v 8.967669 9.102289 0.999999
v -12.611000 -8.816945 0.000001
v -12.791000 -8.153433 0.000001
v -12.745000 -8.507985 0.000001
v 12.767000 5.104144 -0.000000
v 12.704653 5.403062 -0.000000
v -50.239254 48.500000 -0.000004
v -50.239254 -48.500000 0.000004
v 8.621558 9.143909 -0.000001
v 12.744000 -8.563858 1.000001
v 8.967669 9.102289 -0.000001
v 12.610000 -8.811296 1.000001
v 12.384361 -8.994334 1.000001
v 9.269812 8.973449 -0.000001
v 12.097841 -9.081334 1.000001
v 9.531112 8.713503 -0.000001
v 11.747044 -9.111334 1.000001
v 9.803116 8.404194 -0.000001
v 12.308000 5.904985 -0.000000
v 12.457000 5.726292 -0.000000
v 12.592000 5.574450 -0.000000
v 12.744000 -8.563858 0.000001
v 12.610000 -8.811296 0.000001
v 12.384361 -8.994334 0.000001
vn -0.0000 -0.0000 1.0000
vn -1.0000 -0.0026 -0.0000
vn -0.0000 -0.0000 -1.0000
vn 0.0004 -1.0000 -0.0000
vn 0.0283 -0.9996 -0.0000
vn 1.0000 -0.0000 -0.0000
vn -0.9789 -0.2042 -0.0000
vn -1.0000 -0.0000 -0.0000
vn 0.9943 -0.1067 -0.0000
vn -0.0000 -1.0000 -0.0000
vn 0.9213 -0.3890 -0.0000
vn 0.9212 -0.3890 -0.0000
vn 0.0744 0.9972 -0.0000
vn -0.0000 1.0000 -0.0000
vn 0.2637 0.9646 -0.0000
vn 0.6156 -0.7881 -0.0000
vn 0.5999 0.8001 -0.0000
vn 0.3536 -0.9354 -0.0000
vn 0.9174 0.3979 -0.0000
vn 0.9917 0.1287 -0.0000
vn -0.9996 0.0269 -0.0000
vn -0.0063 -1.0000 -0.0000
vn -0.7063 -0.7079 -0.0000
vn -0.1194 -0.9928 -0.0000
vn -0.7680 -0.6404 -0.0000
vn -0.7473 -0.6644 -0.0000
vn -0.8356 -0.5493 -0.0000
vn -0.9921 0.1256 -0.0000
vn -0.3922 -0.9199 -0.0000
vn -0.3923 -0.9199 -0.0000
vn -0.8793 0.4762 -0.0000
vn -0.7053 -0.7089 -0.0000
vn -0.6300 0.7766 -0.0000
vn -0.2905 0.9569 -0.0000
vn -0.0852 0.9964 -0.0000
vn -0.7509 -0.6604 -0.0000
s 0
usemtl color_15277357
f 28//1 1//1 3//1
f 6//1 5//1 20//1
f 28//1 10//1 9//1
f 7//1 20//1 5//1
f 8//1 20//1 12//1
f 20//1 13//1 12//1
f 14//1 13//1 20//1
f 12//1 11//1 8//1
f 28//1 2//1 1//1
f 28//1 9//1 2//1
f 28//1 4//1 18//1
f 28//1 3//1 4//1
f 20//1 7//1 17//1
f 28//1 27//1 10//1
f 27//1 25//1 10//1
f 18//1 20//1 28//1
f 12//2 19//2 26//2
f 26//2 11//2 12//2
f 27//1 15//1 22//1
f 42//3 52//3 32//3
f 51//3 44//3 40//3
f 34//4 40//4 4//4
f 27//1 24//1 33//1
f 33//1 25//1 27//1
f 32//3 52//3 38//3
f 52//3 41//3 38//3
f 52//3 43//3 41//3
f 39//1 20//1 18//1
f 40//4 18//4 4//4
f 51//3 29//3 37//3
f 51//3 30//3 29//3
f 39//1 45//1 20//1
f 65//3 64//3 44//3
f 42//3 26//3 19//3
f 67//3 66//3 42//3
f 66//3 26//3 42//3
f 19//3 44//3 42//3
f 3//5 35//5 4//5
f 4//5 35//5 34//5
f 10//6 25//6 36//6
f 52//3 46//3 43//3
f 35//3 30//3 51//3
f 34//3 35//3 51//3
f 40//3 34//3 51//3
f 40//3 44//3 53//3
f 44//3 58//3 55//3
f 55//3 53//3 44//3
f 60//3 58//3 44//3
f 25//6 47//6 36//6
f 20//1 45//1 6//1
f 52//3 48//3 46//3
f 49//7 13//7 50//7
f 50//7 13//7 14//7
f 52//3 47//3 48//3
f 51//3 36//3 47//3
f 51//3 37//3 36//3
f 52//3 51//3 47//3
f 17//1 21//1 20//1
f 52//8 27//8 51//8
f 51//8 27//8 28//8
f 44//6 20//6 42//6
f 42//6 20//6 8//6
f 21//1 23//1 20//1
f 23//1 14//1 20//1
f 11//1 54//1 8//1
f 37//9 9//9 36//9
f 36//9 9//9 10//9
f 52//10 8//10 27//10
f 54//1 56//1 8//1
f 52//10 42//10 8//10
f 29//11 2//11 37//11
f 37//12 2//12 9//12
f 41//13 15//13 38//13
f 38//13 15//13 16//13
f 56//1 57//1 8//1
f 51//14 28//14 20//14
f 20//14 44//14 51//14
f 57//1 59//1 8//1
f 43//15 22//15 41//15
f 41//15 22//15 15//15
f 30//16 1//16 29//16
f 29//16 1//16 2//16
f 46//17 24//17 43//17
f 43//17 24//17 22//17
f 35//18 3//18 30//18
f 30//18 3//18 1//18
f 62//3 60//3 44//3
f 48//19 33//19 46//19
f 46//19 33//19 24//19
f 22//1 24//1 27//1
f 27//1 8//1 16//1
f 8//1 61//1 16//1
f 59//1 61//1 8//1
f 16//1 15//1 27//1
f 33//20 48//20 25//20
f 25//20 48//20 47//20
f 13//21 49//21 12//21
f 12//21 49//21 19//21
f 49//3 44//3 19//3
f 53//22 39//22 40//22
f 40//22 39//22 18//22
f 44//3 63//3 62//3
f 63//23 17//23 62//23
f 62//23 17//23 7//23
f 53//24 45//24 39//24
f 64//25 21//25 63//25
f 63//25 21//25 17//25
f 65//26 23//26 64//26
f 64//26 23//26 21//26
f 55//24 45//24 53//24
f 44//3 64//3 63//3
f 50//27 14//27 65//27
f 65//27 14//27 23//27
f 66//28 54//28 26//28
f 26//28 54//28 11//28
f 58//29 6//29 55//29
f 55//30 6//30 45//30
f 67//31 56//31 66//31
f 66//31 56//31 54//31
f 44//3 50//3 65//3
f 44//3 49//3 50//3
f 60//32 5//32 58//32
f 58//32 5//32 6//32
f 68//33 57//33 67//33
f 67//33 57//33 56//33
f 31//34 59//34 68//34
f 68//34 59//34 57//34
f 32//35 61//35 31//35
f 31//35 61//35 59//35
f 62//36 7//36 60//36
f 60//36 7//36 5//36
f 16//14 32//14 38//14
f 31//3 68//3 42//3
f 32//3 31//3 42//3
f 68//3 67//3 42//3
f 61//14 32//14 16//14
