# Blender 4.2.1 LTS
# www.blender.org
mtllib ofamask-rev-lg.mtl
o obj_0
v 8.684859 -9.142293 1.000001
v 8.382518 -9.161964 1.000001
v 9.029517 -9.130582 1.000001
v 12.402000 8.994334 0.999999
v 9.268572 -8.989266 1.000001
v 12.610000 8.858334 0.999999
v 12.139000 9.081334 0.999999
v 12.308000 -5.912496 0.000000
v 12.457000 -5.739482 0.000000
v 11.847000 9.111334 0.999999
v 12.592000 -5.594086 0.000000
v 12.698000 -5.462334 0.000000
v 49.520321 48.500000 0.999996
v -12.139000 9.081334 0.999999
v -12.139000 9.081334 -0.000001
v -11.847000 9.111334 -0.000001
v -11.847000 9.111334 0.999999
v 12.791000 8.498334 -0.000001
v 12.744000 8.687334 -0.000001
v -12.402000 8.994334 0.999999
v -12.402000 8.994334 -0.000001
v 12.610000 8.858334 -0.000001
v 12.139000 9.081334 -0.000001
v 12.402000 8.994334 -0.000001
v -12.611000 8.858334 0.999999
v -12.611000 8.858334 -0.000001
v 11.847000 9.111334 -0.000001
v 12.759356 -5.001334 0.000000
v 12.759356 -5.001334 1.000000
v 12.791000 8.498334 0.999999
v -11.847000 -9.111334 0.000001
v -11.847000 -9.111334 1.000001
v 49.520321 48.500000 -0.000004
v 8.382518 -9.161964 0.000001
v 49.520321 -48.500000 0.000004
v -12.402000 -8.994334 1.000001
v -12.611000 -8.858334 1.000001
v -12.139000 -9.081334 1.000001
v -12.791000 -8.498334 1.000001
v 49.520321 -48.500000 1.000004
v -12.791000 -8.498334 0.000001
v -12.745000 -8.687334 1.000001
v -12.791000 8.498334 -0.000001
v -12.791000 8.498334 0.999999
v -12.745000 8.687334 0.999999
v 9.537572 -8.703032 1.000001
v 9.802189 -8.407125 1.000001
v 8.684859 -9.142293 0.000001
v 9.029517 -9.130582 0.000001
v 9.268572 -8.989266 0.000001
v 12.767000 -5.216334 1.000000
v 12.698000 -5.462334 1.000000
v 9.537572 -8.703032 0.000001
v 12.308000 -5.912496 1.000000
v 9.802189 -8.407125 0.000001
v 12.457000 -5.739482 1.000000
v 12.592000 -5.594086 1.000000
v -49.722511 -48.500000 0.000004
v -49.722511 48.500000 -0.000004
v -49.722511 48.500000 0.999996
v 12.767000 -5.216334 0.000000
v -49.722511 -48.500000 1.000004
v 12.744000 8.687334 0.999999
v -12.402000 -8.994334 0.000001
v -12.611000 -8.858334 0.000001
v -12.139000 -9.081334 0.000001
v -12.745000 -8.687334 0.000001
v -12.745000 8.687334 -0.000001
vn -0.0000 -0.0000 1.0000
vn -0.0000 -0.0000 -1.0000
vn 0.1022 -0.9948 -0.0000
vn 0.3141 -0.9494 -0.0000
vn -0.3141 -0.9494 -0.0000
vn 0.5454 -0.8382 -0.0000
vn -0.1022 -0.9948 -0.0000
vn -0.0000 -1.0000 -0.0000
vn -1.0000 0.0023 -0.0000
vn 0.0025 1.0000 -0.0000
vn 1.0000 -0.0000 -0.0000
vn -1.0000 -0.0000 -0.0000
vn -0.0000 1.0000 -0.0000
vn 0.5454 0.8382 -0.0000
vn -0.0649 0.9979 -0.0000
vn 0.3141 0.9494 -0.0000
vn -0.0340 0.9994 -0.0000
vn 0.1022 0.9948 -0.0000
vn -0.5089 0.8608 -0.0000
vn 0.9716 0.2365 -0.0000
vn -0.7287 0.6848 -0.0000
vn 0.7871 0.6168 -0.0000
vn 0.7871 -0.6168 -0.0000
vn 0.9716 -0.2365 -0.0000
vn -0.7454 0.6666 -0.0000
vn -0.7055 0.7087 -0.0000
vn -0.9628 0.2701 -0.0000
vn -0.9994 -0.0355 -0.0000
vn -0.7577 0.6526 -0.0000
vn -0.7328 0.6804 -0.0000
vn -0.7791 0.6268 -0.0000
vn -0.7791 0.6269 -0.0000
vn -0.9704 -0.2413 -0.0000
vn -0.7871 -0.6168 -0.0000
vn -0.5473 -0.8370 -0.0000
s 0
usemtl color_15277357
f 4//1 6//1 13//1
f 9//2 35//2 8//2
f 11//2 35//2 9//2
f 7//1 13//1 10//1
f 12//2 35//2 11//2
f 14//3 15//3 16//3
f 14//3 16//3 17//3
f 20//4 21//4 15//4
f 20//4 15//4 14//4
f 7//5 23//5 24//5
f 7//5 24//5 4//5
f 25//6 26//6 21//6
f 25//6 21//6 20//6
f 10//7 27//7 23//7
f 10//7 23//7 7//7
f 24//2 33//2 22//2
f 23//2 33//2 24//2
f 27//2 33//2 23//2
f 16//8 10//8 17//8
f 16//2 33//2 27//2
f 18//9 28//9 29//9
f 16//8 27//8 10//8
f 30//9 18//9 29//9
f 18//2 33//2 28//2
f 19//2 33//2 18//2
f 19//2 22//2 33//2
f 35//2 28//2 33//2
f 32//10 2//10 31//10
f 34//10 31//10 2//10
f 35//2 58//2 34//2
f 34//2 48//2 35//2
f 40//11 35//11 33//11
f 40//11 33//11 13//11
f 36//1 62//1 38//1
f 39//11 41//11 44//11
f 43//11 44//11 41//11
f 58//8 35//8 40//8
f 37//1 62//1 36//1
f 39//1 62//1 42//1
f 37//1 42//1 62//1
f 7//1 4//1 13//1
f 40//1 13//1 29//1
f 29//1 51//1 40//1
f 3//1 1//1 40//1
f 40//1 5//1 3//1
f 2//1 40//1 1//1
f 5//1 40//1 46//1
f 49//2 35//2 48//2
f 33//2 16//2 59//2
f 15//2 59//2 16//2
f 47//1 46//1 40//1
f 50//2 35//2 49//2
f 35//2 50//2 53//2
f 53//2 55//2 35//2
f 52//1 57//1 40//1
f 51//1 52//1 40//1
f 54//1 47//1 40//1
f 58//2 31//2 34//2
f 8//2 35//2 55//2
f 58//2 59//2 43//2
f 41//2 58//2 43//2
f 60//12 59//12 58//12
f 60//12 58//12 62//12
f 12//2 61//2 35//2
f 54//1 40//1 56//1
f 57//1 56//1 40//1
f 13//13 33//13 60//13
f 35//2 61//2 28//2
f 30//1 29//1 13//1
f 60//13 33//13 59//13
f 58//8 40//8 62//8
f 63//1 30//1 13//1
f 6//1 63//1 13//1
f 36//14 64//14 65//14
f 36//14 65//14 37//14
f 1//15 48//15 34//15
f 1//15 34//15 2//15
f 14//1 17//1 60//1
f 38//16 66//16 64//16
f 38//16 64//16 36//16
f 3//17 49//17 48//17
f 3//17 48//17 1//17
f 66//18 38//18 32//18
f 66//18 32//18 31//18
f 5//19 50//19 49//19
f 5//19 49//19 3//19
f 25//1 20//1 60//1
f 45//1 25//1 60//1
f 42//20 67//20 41//20
f 42//20 41//20 39//20
f 5//21 53//21 50//21
f 37//22 65//22 67//22
f 37//22 67//22 42//22
f 20//1 14//1 60//1
f 13//1 60//1 17//1
f 13//1 17//1 10//1
f 46//21 53//21 5//21
f 26//23 25//23 68//23
f 45//23 68//23 25//23
f 32//1 38//1 62//1
f 40//1 2//1 62//1
f 32//1 62//1 2//1
f 43//24 68//24 45//24
f 43//24 45//24 44//24
f 47//25 55//25 53//25
f 47//25 53//25 46//25
f 60//1 62//1 39//1
f 44//1 60//1 39//1
f 45//1 60//1 44//1
f 54//26 8//26 55//26
f 54//26 55//26 47//26
f 51//27 61//27 12//27
f 51//27 12//27 52//27
f 28//28 61//28 51//28
f 28//28 51//28 29//28
f 31//2 58//2 66//2
f 64//2 66//2 58//2
f 41//2 67//2 58//2
f 56//29 9//29 8//29
f 56//29 8//29 54//29
f 57//30 11//30 9//30
f 57//30 9//30 56//30
f 65//2 58//2 67//2
f 64//2 58//2 65//2
f 52//31 12//31 11//31
f 52//32 11//32 57//32
f 26//2 68//2 59//2
f 63//33 19//33 18//33
f 63//33 18//33 30//33
f 6//34 22//34 19//34
f 6//34 19//34 63//34
f 59//2 68//2 43//2
f 4//35 24//35 22//35
f 4//35 22//35 6//35
f 21//2 59//2 15//2
f 26//2 59//2 21//2
