<?xml version="1.0" encoding="UTF-8"?>
<svg id="Layer_1" data-name="Layer 1" xmlns="http://www.w3.org/2000/svg" viewBox="0 0 254.894 86.2">
  <defs>
    <style>
      .cls-1 {
        fill: #fff;
        stroke-width: 0px;
      }
    </style>
  </defs>
  <path class="cls-1" d="M36.364,12.4c-.223-.177-.333-.422-.333-.733s.043-.633.133-.967c.088-.333.21-.667.367-1,.155-.333.277-.61.367-.833.177-.443.344-.867.5-1.267.155-.4.188-.71.1-.933-.223-.889-.812-1.455-1.767-1.7-.956-.244-2.189-.367-3.7-.367-1.557,0-3.045.256-4.467.767-1.423.512-2.689,1.223-3.8,2.133-1.111.912-2.011,2-2.7,3.267-.689,1.267-1.078,2.633-1.167,4.1-.045,1.2.233,2.345.833,3.434.6,1.089,1.377,2.167,2.333,3.233.955,1.066,2,2.145,3.133,3.233,1.133,1.089,2.2,2.256,3.2,3.5,1,1.245,1.844,2.589,2.533,4.033.688,1.445,1.077,3.033,1.167,4.767.088,2.533-.378,4.978-1.4,7.333-1.023,2.356-2.412,4.445-4.167,6.267-1.756,1.823-3.8,3.312-6.133,4.467-2.333,1.156-4.767,1.823-7.3,2-.445.043-.878.077-1.3.1-.423.022-.856.034-1.3.034-.978,0-1.989-.057-3.033-.167-1.045-.11-2.066-.333-3.066-.667s-1.934-.789-2.8-1.367c-.867-.577-1.589-1.333-2.167-2.267-.445-.71-.545-1.567-.3-2.567.244-1,.667-1.966,1.267-2.9.6-.933,1.333-1.722,2.2-2.367.867-.644,1.722-.967,2.567-.967.622,0,1.021.19,1.2.567.177.378.222.823.133,1.333-.089.511-.256,1.033-.5,1.566-.245.533-.5.957-.767,1.267-.667,1.023-.933,1.845-.8,2.467.133.623.51,1.1,1.133,1.434.622.333,1.422.556,2.4.667.977.111,1.977.167,3,.167,1.377,0,2.8-.3,4.267-.9s2.833-1.411,4.1-2.433c1.267-1.022,2.355-2.2,3.267-3.534.911-1.333,1.5-2.755,1.767-4.267.267-1.467.2-2.889-.2-4.267-.4-1.377-.967-2.722-1.7-4.033-.733-1.311-1.578-2.544-2.533-3.7-.957-1.155-1.878-2.222-2.767-3.2-.845-.934-1.623-1.944-2.333-3.034-.711-1.088-1.278-2.233-1.7-3.433-.423-1.2-.667-2.444-.733-3.733-.067-1.289.122-2.6.566-3.934.577-1.777,1.588-3.455,3.033-5.033,1.444-1.577,3.11-2.955,5-4.133,1.889-1.177,3.877-2.11,5.967-2.8,2.088-.688,4.067-1.034,5.934-1.034.622,0,1.422.057,2.4.167.977.111,1.944.3,2.9.566.955.267,1.822.645,2.6,1.133.777.49,1.3,1.112,1.566,1.867.444,1.423-.333,3.445-2.333,6.067-.133.178-.4.467-.8.867s-.845.778-1.333,1.133c-.49.356-.967.611-1.434.767-.467.156-.833.1-1.1-.167Z"/>
  <path class="cls-1" d="M50.93,28.534c-.378,1.466-.945,3.189-1.7,5.167-.756,1.978-1.623,4.078-2.6,6.3-.978,2.223-1.957,4.378-2.934,6.467-.978,2.09-1.9,4.012-2.767,5.767-.867,1.756-1.566,3.1-2.1,4.034-.312.489-.778.756-1.4.8-.623.044-1.211-.077-1.767-.367-.555-.289-1-.71-1.333-1.267-.333-.555-.367-1.188-.1-1.9,1.021-2.222,1.9-4.167,2.633-5.833.733-1.667,1.521-3.477,2.367-5.433.844-1.956,1.61-3.789,2.3-5.5.688-1.71,1.222-3.167,1.6-4.367.377-1.2.5-1.889.367-2.067-.49-.577-.8-1.155-.934-1.733-.133-.577.177-1.444.934-2.6.267-.355.767-.722,1.5-1.1.733-.377,1.521-.644,2.367-.8.844-.155,1.633-.144,2.367.034.733.178,1.233.623,1.5,1.333.177.578.077,1.6-.3,3.067ZM50.163,14.3c-.49.156-.923.39-1.3.7-.378.312-.7.656-.967,1.034-.267.378-.445.7-.533.966-.09.267-.167.59-.233.967-.067.378-.09.745-.067,1.1.022.356.144.689.367,1,.222.312.577.556,1.067.733,1.021.356,1.933.256,2.733-.3.8-.555,1.31-1.122,1.533-1.7.088-.267.188-.622.3-1.067.11-.443.167-.877.167-1.3s-.112-.822-.333-1.2c-.223-.377-.6-.677-1.133-.9-.578-.177-1.111-.188-1.6-.033Z"/>
  <path class="cls-1" d="M79.963,26.733c.311.623.377,1.223.2,1.8-.223.667-.645,1-1.267,1-.223,0-.445-.044-.667-.133-.223-.089-.49-.177-.8-.267-.578-.177-1.278-.377-2.1-.6-.823-.222-1.833-.333-3.034-.333-1.156,0-2.29.278-3.4.833-1.111.556-2.167,1.267-3.167,2.133s-1.912,1.8-2.733,2.8c-.823,1-1.545,1.945-2.167,2.833-1.29,1.823-2.267,3.6-2.934,5.333-.667,1.733-1.133,3.311-1.4,4.733-.267,1.423-.356,2.678-.267,3.767.088,1.089.267,1.923.533,2.5.267.4.767.511,1.5.333.733-.177,1.522-.477,2.367-.9.844-.422,1.633-.889,2.367-1.4.733-.511,1.233-.9,1.5-1.167.934-.888,1.944-2.1,3.033-3.633,1.089-1.533,2.1-3.155,3.034-4.867.933-1.71,1.688-3.422,2.267-5.133.577-1.71.844-3.21.8-4.5-.045-.488.044-.922.267-1.3.222-.377.577-.567,1.067-.567h.066c.044,0,.177.012.4.034.222.023.477.123.767.3.289.178.588.434.9.767.311.333.577.812.8,1.434.444,1.29.61,2.645.5,4.066-.111,1.423-.433,2.89-.966,4.4-.445,1.912-1.156,4.134-2.134,6.667-.711,1.867-1.478,3.812-2.3,5.833-.823,2.023-1.656,4.044-2.5,6.067-.845,2.022-1.711,4.01-2.6,5.967-.89,1.955-1.756,3.8-2.6,5.533-.711,1.422-1.778,3.01-3.2,4.767-1.423,1.755-3,3.4-4.733,4.934-1.733,1.533-3.523,2.822-5.367,3.867-1.844,1.043-3.522,1.566-5.033,1.566-.577,0-1.144-.089-1.7-.267-.555-.178-.944-.4-1.167-.667-.222-.267-.177-.578.133-.934.312-.356,1.045-.711,2.2-1.066.8-.267,1.767-.778,2.9-1.534,1.133-.756,2.3-1.7,3.5-2.833,1.2-1.133,2.367-2.423,3.5-3.867,1.133-1.445,2.122-2.99,2.966-4.633,1.155-2.267,2.344-4.745,3.567-7.434,1.222-2.689,2.411-5.411,3.567-8.167-1.156.711-2.323,1.267-3.5,1.667-1.178.4-2.345.6-3.5.6-1.423,0-2.723-.2-3.9-.6-1.178-.4-2.189-.988-3.033-1.767-.845-.777-1.478-1.755-1.9-2.933-.422-1.177-.588-2.567-.5-4.167.223-3.333,1.022-6.444,2.4-9.333,1.377-2.889,3.11-5.389,5.2-7.5,2.088-2.111,4.422-3.777,7-5,2.577-1.222,5.177-1.833,7.8-1.833.533,0,1.167.045,1.9.133.733.089,1.444.245,2.133.467.688.223,1.344.511,1.967.867.622.356,1.11.8,1.467,1.333ZM73.296,35.733c-.044,0-.022.023.067.067,0-.044-.023-.067-.067-.067Z"/>
  <path class="cls-1" d="M112.696,25.8c.489,1.467.633,3.111.434,4.933-.2,1.823-.612,3.678-1.233,5.567-.623,1.89-1.367,3.745-2.233,5.566-.867,1.823-1.689,3.5-2.467,5.034-.778,1.533-1.445,2.845-2,3.933-.556,1.09-.833,1.833-.833,2.233,0,.49.134.745.4.767.267.023.543.012.833-.033.289-.044.567-.044.833,0,.267.045.4.312.4.8,0,.534-.223.978-.667,1.333-.445.356-1,.623-1.667.8-.667.178-1.4.267-2.2.267s-1.533-.077-2.2-.233c-.667-.155-1.223-.4-1.667-.733-.445-.333-.667-.767-.667-1.3,0-.31.289-1.133.867-2.466.577-1.333,1.277-2.9,2.1-4.7.822-1.8,1.7-3.722,2.633-5.767.934-2.044,1.744-3.944,2.434-5.7.688-1.755,1.177-3.244,1.467-4.466.289-1.222.21-1.922-.233-2.1-.8-.355-1.856-.444-3.167-.267-1.311.178-2.611.489-3.9.933-1.29.445-2.456.967-3.5,1.567-1.044.6-1.723,1.123-2.033,1.566-.223.356-.633,1.145-1.233,2.367-.6,1.223-1.29,2.667-2.066,4.333-.778,1.667-1.59,3.423-2.434,5.267-.845,1.845-1.623,3.556-2.333,5.133-.711,1.578-1.311,2.912-1.8,4-.49,1.089-.756,1.7-.8,1.833-.312.489-.778.756-1.4.8-.623.044-1.211-.077-1.767-.367-.556-.289-1-.71-1.333-1.267-.333-.555-.367-1.188-.1-1.9.667-1.511,1.277-2.867,1.833-4.067.555-1.2,1.177-2.555,1.866-4.066.689-1.511,1.377-3.055,2.067-4.633.688-1.577,1.344-3.111,1.967-4.6.622-1.489,1.155-2.789,1.6-3.9.443-1.111.755-1.977.933-2.6.177-.622.155-.867-.067-.733-.223-.088-.5-.144-.833-.167-.333-.022-.678-.055-1.033-.1-.356,0-.712-.033-1.067-.1-.356-.067-.645-.188-.867-.367-.223-.177-.356-.41-.4-.7-.045-.288.066-.633.333-1.033.267-.355.933-.855,2-1.5,1.066-.644,2.255-1.222,3.566-1.733,1.311-.51,2.567-.844,3.767-1,1.2-.155,2.044.078,2.533.7.177.267.134.79-.133,1.566-.267.778-.667,2.123-1.2,4.034.222-.311.755-.7,1.6-1.167.844-.466,1.833-.933,2.966-1.4s2.344-.9,3.633-1.3c1.289-.4,2.511-.644,3.667-.733,1.155-.088,2.167,0,3.033.267s1.455.8,1.767,1.6Z"/>
  <path class="cls-1" d="M138.495,54.6c0,.667-.267,1.211-.8,1.633-.533.423-1.189.7-1.967.833-.778.133-1.589.122-2.433-.033-.845-.155-1.567-.444-2.167-.867-.6-.422-.989-.977-1.167-1.667-.178-.688,0-1.521.533-2.5-1.778,1.378-3.533,2.445-5.267,3.2-2.623,1.245-5.333,1.867-8.133,1.867-1.023,0-1.833-.3-2.433-.9-.6-.6-1.057-1.333-1.367-2.2-.312-.867-.5-1.811-.567-2.833-.066-1.022-.077-1.956-.033-2.8.223-3.333,1.144-6.477,2.767-9.433,1.622-2.956,3.622-5.544,6-7.767,2.377-2.222,4.989-3.978,7.833-5.267,2.844-1.289,5.577-1.933,8.2-1.933.534,0,1.167.045,1.9.133.733.089,1.444.245,2.134.467.688.223,1.344.511,1.966.867.622.356,1.11.8,1.467,1.333.311.623.377,1.223.2,1.8-.223.667-.645,1-1.267,1-.223,0-.444-.044-.667-.133-.223-.089-.49-.177-.8-.267-.578-.177-1.278-.377-2.1-.6-.823-.222-1.833-.333-3.033-.333-1.156,0-2.367.29-3.633.867-1.267.578-2.479,1.3-3.633,2.167-1.156.867-2.223,1.812-3.2,2.833-.978,1.023-1.778,1.978-2.4,2.867-2.534,3.689-4.2,6.967-5,9.833-.8,2.867-.912,4.878-.333,6.033.267.4.755.533,1.467.4.71-.133,1.467-.4,2.267-.8.8-.4,1.566-.833,2.3-1.3.733-.466,1.233-.833,1.5-1.1.934-.888,2.1-2.1,3.5-3.633,1.4-1.533,2.733-3.155,4-4.867,1.267-1.71,2.344-3.422,3.233-5.133.889-1.71,1.311-3.21,1.267-4.5-.044-.488.044-.922.267-1.3.222-.377.577-.567,1.067-.567h.067c.043,0,.167.023.366.067.2.045.434.156.7.333.267.178.555.433.867.767.311.333.622.79.933,1.367.444.89.544,2.145.3,3.767-.245,1.623-.711,3.378-1.4,5.267-.69,1.89-1.545,3.833-2.567,5.833-1.023,2-2.089,3.823-3.2,5.466v.2c0,.49.133.745.4.767.267.023.543.012.833-.033.289-.044.567-.044.833,0,.267.045.4.312.4.8Z"/>
  <path class="cls-1" d="M148.295,24.534c.755.316,1.71.498,2.867.543,1.155.046,2.4.023,3.733-.068.933-2.405,1.844-4.697,2.733-6.875.888-2.177,1.733-4.089,2.533-5.733.8-1.644,1.522-2.967,2.167-3.967.644-1,1.167-1.544,1.567-1.633.977-.177,1.81.023,2.5.6.688.578,1.2,1.256,1.533,2.033.333.778.477,1.533.433,2.267-.044.733-.311,1.189-.8,1.367-.178.089-.456.433-.833,1.033-.378.6-.823,1.412-1.333,2.434-.512,1.023-1.09,2.211-1.733,3.566-.645,1.356-1.3,2.833-1.967,4.434.755-.044,1.489-.077,2.2-.1.71-.022,1.422-.01,2.133.033.444,0,.833.16,1.167.476.333.317.588.645.767.984.177.34.267.668.267.984s-.111.475-.333.475c-1.2.181-2.457.329-3.767.441-1.312.114-2.633.216-3.967.306-.978,2.267-1.957,4.611-2.934,7.033-.978,2.423-1.923,4.733-2.833,6.933-.912,2.2-1.733,4.245-2.467,6.133-.733,1.89-1.345,3.434-1.833,4.633-.133.312-.156.6-.066.867.088.267.2.523.333.767.134.245.267.479.4.7.133.223.2.467.2.733,0,.756-.911,1.133-2.733,1.133-.933,0-1.778-.144-2.533-.433-.756-.289-1.023-.9-.8-1.833.267-1.067.677-2.555,1.233-4.467.555-1.91,1.233-4.066,2.033-6.467.8-2.4,1.667-4.955,2.6-7.667.933-2.71,1.91-5.4,2.933-8.066-1.333-.09-2.533-.283-3.6-.577-1.066-.294-1.911-.714-2.533-1.257-.089-.09-.178-.259-.267-.508-.09-.249-.133-.487-.133-.714s.088-.406.267-.542c.177-.134.467-.135.867-.002Z"/>
  <path class="cls-1" d="M198.028,25.6c-.356.578-.733,1.312-1.133,2.2-.4.89-.867,1.912-1.4,3.066-.578,1.333-1.223,2.812-1.934,4.434-.711,1.623-1.411,3.267-2.1,4.933-.69,1.667-1.333,3.29-1.934,4.867-.6,1.578-1.089,3-1.467,4.267-.378,1.267-.589,2.3-.633,3.1-.044.8.133,1.245.534,1.333.844.223,1.488.49,1.933.8.444.312.733.623.867.934.133.312.144.6.033.867-.111.267-.3.423-.566.466-.4.09-1.112.178-2.133.267-1.023.088-2.067.088-3.133,0-1.067-.089-1.99-.277-2.767-.567-.778-.289-1.1-.744-.966-1.367.088-.355.333-1.077.733-2.167.4-1.089.91-2.367,1.533-3.833l-1.667,1.533c-.979.845-2.067,1.633-3.267,2.367-1.2.733-2.445,1.378-3.733,1.934-1.29.556-2.59,1-3.9,1.333-1.312.333-2.566.5-3.767.5-1.823,0-3.011-.655-3.566-1.966-.557-1.311-.711-2.956-.467-4.934.244-1.977.755-4.144,1.533-6.5.777-2.355,1.577-4.566,2.4-6.633.822-2.066,1.534-3.844,2.133-5.333.6-1.488.855-2.366.767-2.633-.178-.4-.49-.722-.934-.966-.445-.244-.867-.489-1.267-.733-.4-.244-.711-.511-.933-.8-.223-.289-.156-.677.2-1.167.088-.177.555-.367,1.4-.566.844-.2,1.833-.389,2.967-.567,1.133-.177,2.311-.289,3.533-.333,1.222-.043,2.255.023,3.1.2.222.045.177.49-.133,1.333-.312.845-.767,1.933-1.367,3.267-.6,1.333-1.3,2.856-2.1,4.566-.8,1.711-1.589,3.457-2.367,5.233-.778,1.778-1.489,3.512-2.133,5.2-.645,1.689-1.111,3.2-1.4,4.533-.29,1.333-.345,2.4-.167,3.2.177.8.688,1.2,1.533,1.2,3.688,0,7.267-2.2,10.733-6.6,2.355-2.977,4.167-5.622,5.433-7.933,1.267-2.311,2.21-4.333,2.833-6.067.622-1.733,1.033-3.177,1.233-4.333.2-1.155.433-2.089.7-2.8.133-.31.533-.533,1.2-.667s1.4-.167,2.2-.1c.8.067,1.566.233,2.3.5s1.233.645,1.5,1.133Z"/>
  <path class="cls-1" d="M227.227,26.134c.667.356.911.978.733,1.866-.178.89-.6,1.723-1.267,2.5-.667.778-1.49,1.323-2.467,1.634-.978.311-1.933.044-2.867-.8-.623-.577-1.566-.8-2.833-.667-1.267.133-2.557.445-3.867.933-1.312.49-2.512,1.067-3.6,1.733-1.09.667-1.79,1.223-2.1,1.667-.223.356-.6,1.1-1.133,2.233s-1.145,2.467-1.833,4c-.689,1.534-1.411,3.156-2.167,4.867-.756,1.711-1.445,3.3-2.067,4.767-.623,1.467-1.156,2.7-1.6,3.7-.445,1-.69,1.567-.733,1.7-.312.489-.778.756-1.4.8-.623.044-1.212-.077-1.767-.367-.556-.289-1-.71-1.333-1.267-.333-.555-.367-1.188-.1-1.9,1.066-2.4,1.977-4.477,2.733-6.233.755-1.755,1.566-3.655,2.433-5.7.867-2.043,1.633-3.91,2.3-5.6.667-1.688,1.167-3.055,1.5-4.1.333-1.044.367-1.477.1-1.3-.223-.088-.5-.144-.833-.167-.333-.022-.678-.055-1.033-.1-.356,0-.712-.033-1.067-.1-.356-.066-.645-.188-.867-.367-.223-.177-.356-.41-.4-.7-.045-.289.066-.633.333-1.033.267-.355.933-.855,2-1.5,1.066-.644,2.255-1.222,3.566-1.733,1.311-.511,2.567-.844,3.767-1,1.2-.155,2.044.078,2.533.7.177.267.134.79-.133,1.567-.267.778-.667,2.123-1.2,4.033.355-.444,1.21-1.01,2.566-1.7,1.355-.688,2.877-1.3,4.567-1.833,1.688-.533,3.41-.9,5.167-1.1,1.755-.2,3.21-.01,4.367.567Z"/>
  <path class="cls-1" d="M247.627,23.934c2.71,0,4.6.467,5.667,1.4,1.067.934,1.6,2.067,1.6,3.4,0,2.133-.733,4.023-2.2,5.667-1.466,1.645-3.211,3.044-5.233,4.2-2.022,1.156-4.089,2.09-6.2,2.8-2.111.711-3.833,1.223-5.167,1.533-.356.089-.823.145-1.4.167-.578.023-.978-.144-1.2-.5-.133-.222-.09-.477.133-.767.222-.289.444-.543.667-.767.889-.71,2.144-1.4,3.767-2.067,1.622-.667,3.233-1.41,4.833-2.233,1.6-.822,2.988-1.755,4.167-2.8,1.177-1.043,1.767-2.322,1.767-3.833-.044-.577-.189-1.144-.433-1.7-.245-.555-.7-.833-1.367-.833-2.045,0-3.99.623-5.833,1.867-1.845,1.245-3.5,2.812-4.966,4.7-1.467,1.89-2.711,3.923-3.733,6.1-1.023,2.178-1.767,4.211-2.233,6.1-.467,1.89-.6,3.457-.4,4.7.2,1.245.789,1.867,1.767,1.867,2.667,0,4.922-.467,6.767-1.4,1.844-.934,3.389-1.956,4.633-3.067,1.244-1.11,2.244-2.133,3-3.066.755-.934,1.4-1.4,1.933-1.4.8,0,1.255.323,1.367.967.111.645-.089,1.445-.6,2.4-.512.957-1.333,2-2.467,3.133-1.133,1.134-2.545,2.178-4.233,3.134-1.689.956-3.633,1.756-5.833,2.4-2.2.645-4.633.966-7.3.966-1.245,0-2.245-.366-3-1.1-.756-.733-1.3-1.677-1.633-2.833-.333-1.155-.5-2.433-.5-3.833s.089-2.789.267-4.167c.177-1.377.411-2.644.7-3.8.289-1.155.588-2.044.9-2.667,2.311-5.066,5.289-8.777,8.933-11.133,3.644-2.355,8-3.533,13.067-3.533Z"/>
</svg>